<svg width="300" height="300" viewBox="0 0 300 300" fill="none" xmlns="http://www.w3.org/2000/svg">
<rect width="300" height="300" rx="49" fill="white"/>
<path fill-rule="evenodd" clip-rule="evenodd" d="M110.333 213.667C145.311 213.667 173.667 185.311 173.667 150.333C173.667 115.355 145.311 87 110.333 87C75.3553 87 47 115.355 47 150.333C47 185.311 75.3553 213.667 110.333 213.667ZM110.333 228.667C153.596 228.667 188.667 193.596 188.667 150.333C188.667 107.071 153.596 72 110.333 72C67.071 72 32 107.071 32 150.333C32 193.596 67.071 228.667 110.333 228.667ZM188.667 213.667C223.645 213.667 252 185.311 252 150.333C252 115.355 223.645 87 188.667 87C153.689 87 125.333 115.355 125.333 150.333C125.333 185.311 153.689 213.667 188.667 213.667ZM188.667 228.667C231.929 228.667 267 193.596 267 150.333C267 107.071 231.929 72 188.667 72C145.404 72 110.333 107.071 110.333 150.333C110.333 193.596 145.404 228.667 188.667 228.667Z" fill="#333333"/>
</svg>
